<svg width="705" height="915" viewBox="0 0 705 915" fill="none" xmlns="http://www.w3.org/2000/svg">
<path opacity="0.1" d="M712.241 495.624C711.273 530.661 686.76 564.75 659.913 591.719C575.579 676.452 462.159 719.133 353.141 746.212C313.656 756.001 273.214 764.223 235.318 759.484C158.181 749.845 101.632 680.862 104.316 599.691C105.235 572.073 112.238 543.926 120.829 516.348C136.151 467.266 157.098 418.294 188.985 375.695C211.724 345.314 239.465 318.892 268.323 294.295C348.88 225.655 440.473 169.601 536.796 140.303C579.048 127.465 623.951 119.952 661.697 133.035C699.443 146.118 727.292 184.741 717.493 228.018C713.443 245.913 703.627 262.818 693.905 279.263C679.587 303.471 664.94 327.977 656.711 354.053C648.235 381.015 644.756 418.873 667.529 432.622C692.012 447.374 713.168 460.632 712.241 495.624Z" fill="#61A64E"/>
</svg>
