<svg width="583" height="477" viewBox="0 0 583 477" fill="none" xmlns="http://www.w3.org/2000/svg">
<path d="M307.1 219.6L334.9 247.4C354.8 267.3 381.3 278.3 409.5 278.3C437.7 278.3 464.2 267.3 484.1 247.4C525.2 206.3 525.2 139.4 484.1 98.2C443 57.1 376.1 57.1 334.9 98.2L290.9 142.2L260.3 172.8L216.3 216.8C192 241.1 152.5 241.1 128.3 216.8C104 192.5 104 153 128.3 128.8C140.4 116.7 156.4 110.6 172.3 110.6C188.2 110.6 204.2 116.7 216.3 128.8L244.1 156.6L257.5 143.2L229.7 115.4C213.9 99.6 193.1 91.7 172.3 91.7C151.5 91.7 130.7 99.6 114.9 115.4C83.3 147 83.3 198.5 114.9 230.2C130.2 245.5 150.6 254 172.3 254C194 254 214.4 245.6 229.7 230.2L287.1 172.8C288.4 171.5 289.6 170.3 290.9 169L348.3 111.6C382 77.9 437 77.9 470.7 111.6C504.4 145.4 504.4 200.3 470.7 234C454.4 250.4 432.6 259.4 409.5 259.4C386.4 259.4 364.6 250.4 348.3 234L320.5 206.2L307.1 219.6Z" fill="url(#paint0_linear)"/>
<path d="M324.3 202.4L352.1 230.2C367.4 245.5 387.8 254 409.5 254C431.2 254 451.6 245.6 466.9 230.2C498.5 198.6 498.5 147.1 466.9 115.4C435.3 83.8 383.8 83.8 352.1 115.4L294.7 172.8C293.4 174.1 292.1 175.4 290.9 176.6L233.5 234C217.1 250.4 195.4 259.4 172.3 259.4C149.2 259.4 127.4 250.4 111.1 234C77.4 200.2 77.4 145.3 111.1 111.6C144.9 77.9 199.8 77.9 233.5 111.6L261.3 139.4L274.7 126L246.9 98.2C205.8 57.1 138.9 57.1 97.7 98.2C56.6 139.3 56.6 206.2 97.7 247.4C138.8 288.6 205.7 288.5 246.9 247.4L290.9 203.4L321.5 172.8L365.5 128.8C389.8 104.5 429.3 104.5 453.5 128.8C477.8 153.1 477.8 192.6 453.5 216.8C441.7 228.6 426.1 235 409.5 235C392.9 235 377.2 228.5 365.5 216.8L337.7 189L324.3 202.4Z" fill="url(#paint1_linear)"/>
<path d="M66.8999 344.8H75.9999V386.2C75.9999 396 82.3999 401.7 92.2999 401.7C102.3 401.7 108.8 396 108.8 386V344.8H117.9V386.2C117.9 400.4 107.5 410 92.3999 410C77.2999 410 66.8999 400.5 66.8999 386.2V344.8Z" fill="#493C32"/>
<path d="M134.6 344.8H154.4C161.2 344.8 164 345.3 166.5 346.3C173.1 348.7 177.4 355.2 177.4 363.6C177.4 371.8 172.8 378.7 165.7 380.9V381.1C165.7 381.1 166.4 381.9 167.6 384L181.4 408.9H171.1L157.4 383.4H143.5V408.9H134.4V344.8H134.6ZM156.8 375.6C163.9 375.6 168.3 371.2 168.3 364C168.3 359.3 166.5 355.9 163.2 354.1C161.5 353.2 159.3 352.6 154.3 352.6H143.8V375.6H156.8Z" fill="#493C32"/>
<path d="M193.5 344.8H216.2C227.1 344.8 235 350.8 235 361.1C235 367.4 231.9 372.4 226.9 374.9V375.1C233.7 377.1 237.5 383.4 237.5 390.6C237.5 402.7 228 408.8 216.7 408.8H193.5V344.8ZM216.1 371.8C222 371.8 225.6 367.7 225.6 362.1C225.6 356.5 222.1 352.7 215.9 352.7H202.5V371.8H216.1ZM217.1 401.1C224.1 401.1 228.2 396.7 228.2 390.2C228.2 383.7 223.8 379.2 217 379.2H202.5V401.1H217.1Z" fill="#493C32"/>
<path d="M283.8 390.5H259.4L253 408.9H243.6L266.9 344.8H276.4L299.7 408.9H290.2L283.8 390.5ZM271.6 353.6C271.6 353.6 270.1 359.4 269 362.7L261.7 383H281.3L274.1 362.7C273 359.4 271.6 353.6 271.6 353.6Z" fill="#493C32"/>
<path d="M309.3 344.8H318.3L347.1 386.4C349.5 389.8 352.5 395.7 352.5 395.7H352.7C352.7 395.7 352.1 390 352.1 386.4V344.8H361.2V408.9H352.3L323.4 367.3C321 363.8 318 358 318 358H317.8C317.8 358 318.4 363.7 318.4 367.3V408.9H309.3V344.8Z" fill="#493C32"/>
<path d="M407.7 344.8C426.4 344.8 440.9 359 440.9 377.5C440.9 396.4 426.4 411.1 407.7 411.1C389 411.1 374.4 396.4 374.4 377.5C374.4 359.1 389 344.8 407.7 344.8ZM407.7 402.8C420.9 402.8 431.6 391.9 431.6 377.5C431.6 363.5 421 353 407.7 353C394.5 353 383.7 363.5 383.7 377.5C383.7 391.9 394.5 402.8 407.7 402.8Z" fill="#493C32"/>
<path d="M481.9 344.8C500.6 344.8 515.1 359 515.1 377.5C515.1 396.4 500.6 411.1 481.9 411.1C463.2 411.1 448.6 396.4 448.6 377.5C448.6 359.1 463.2 344.8 481.9 344.8ZM481.9 402.8C495.1 402.8 505.8 391.9 505.8 377.5C505.8 363.5 495.2 353 481.9 353C468.7 353 457.9 363.5 457.9 377.5C458 391.9 468.7 402.8 481.9 402.8Z" fill="#493C32"/>
<path d="M66.8999 344.8H75.9999V386.2C75.9999 396 82.3999 401.7 92.2999 401.7C102.3 401.7 108.8 396 108.8 386V344.8H117.9V386.2C117.9 400.4 107.5 410 92.3999 410C77.2999 410 66.8999 400.5 66.8999 386.2V344.8Z" fill="#493C32"/>
<path d="M134.6 344.8H154.4C161.2 344.8 164 345.3 166.5 346.3C173.1 348.7 177.4 355.2 177.4 363.6C177.4 371.8 172.8 378.7 165.7 380.9V381.1C165.7 381.1 166.4 381.9 167.6 384L181.4 408.9H171.1L157.4 383.4H143.5V408.9H134.4V344.8H134.6ZM156.8 375.6C163.9 375.6 168.3 371.2 168.3 364C168.3 359.3 166.5 355.9 163.2 354.1C161.5 353.2 159.3 352.6 154.3 352.6H143.8V375.6H156.8Z" fill="#493C32"/>
<path d="M193.5 344.8H216.2C227.1 344.8 235 350.8 235 361.1C235 367.4 231.9 372.4 226.9 374.9V375.1C233.7 377.1 237.5 383.4 237.5 390.6C237.5 402.7 228 408.8 216.7 408.8H193.5V344.8ZM216.1 371.8C222 371.8 225.6 367.7 225.6 362.1C225.6 356.5 222.1 352.7 215.9 352.7H202.5V371.8H216.1ZM217.1 401.1C224.1 401.1 228.2 396.7 228.2 390.2C228.2 383.7 223.8 379.2 217 379.2H202.5V401.1H217.1Z" fill="#493C32"/>
<path d="M283.8 390.5H259.4L253 408.9H243.6L266.9 344.8H276.4L299.7 408.9H290.2L283.8 390.5ZM271.6 353.6C271.6 353.6 270.1 359.4 269 362.7L261.7 383H281.3L274.1 362.7C273 359.4 271.6 353.6 271.6 353.6Z" fill="#493C32"/>
<path d="M309.3 344.8H318.3L347.1 386.4C349.5 389.8 352.5 395.7 352.5 395.7H352.7C352.7 395.7 352.1 390 352.1 386.4V344.8H361.2V408.9H352.3L323.4 367.3C321 363.8 318 358 318 358H317.8C317.8 358 318.4 363.7 318.4 367.3V408.9H309.3V344.8Z" fill="#493C32"/>
<path d="M407.7 344.8C426.4 344.8 440.9 359 440.9 377.5C440.9 396.4 426.4 411.1 407.7 411.1C389 411.1 374.4 396.4 374.4 377.5C374.4 359.1 389 344.8 407.7 344.8ZM407.7 402.8C420.9 402.8 431.6 391.9 431.6 377.5C431.6 363.5 421 353 407.7 353C394.5 353 383.7 363.5 383.7 377.5C383.7 391.9 394.5 402.8 407.7 402.8Z" fill="#493C32"/>
<path d="M481.9 344.8C500.6 344.8 515.1 359 515.1 377.5C515.1 396.4 500.6 411.1 481.9 411.1C463.2 411.1 448.6 396.4 448.6 377.5C448.6 359.1 463.2 344.8 481.9 344.8ZM481.9 402.8C495.1 402.8 505.8 391.9 505.8 377.5C505.8 363.5 495.2 353 481.9 353C468.7 353 457.9 363.5 457.9 377.5C458 391.9 468.7 402.8 481.9 402.8Z" fill="#493C32"/>
<defs>
<linearGradient id="paint0_linear" x1="91.2099" y1="172.837" x2="514.962" y2="172.837" gradientUnits="userSpaceOnUse">
<stop offset="0.4" stop-color="#90BBFF"/>
<stop offset="0.6" stop-color="#A2FF8C"/>
</linearGradient>
<linearGradient id="paint1_linear" x1="66.9013" y1="172.814" x2="490.656" y2="172.814" gradientUnits="userSpaceOnUse">
<stop offset="0.4" stop-color="#90BBFF"/>
<stop offset="0.6" stop-color="#A2FF8C"/>
</linearGradient>
</defs>
</svg>
